<?xml version="1.0" standalone="no"?>
<!DOCTYPE svg PUBLIC "-//W3C//DTD SVG 20010904//EN"
 "http://www.w3.org/TR/2001/REC-SVG-20010904/DTD/svg10.dtd">
<svg version="1.0" xmlns="http://www.w3.org/2000/svg"
 width="832.000000pt" height="832.000000pt" viewBox="0 0 832.000000 832.000000"
 preserveAspectRatio="xMidYMid meet">
<metadata>
Created by potrace 1.14, written by Peter Selinger 2001-2017
</metadata>
<g transform="translate(0.000000,832.000000) scale(0.100000,-0.100000)"
fill="#000000" stroke="none">
<path d="M4984 7507 c-7 -7 -27 -25 -45 -41 -42 -35 -163 -142 -198 -175 -14
-13 -46 -40 -70 -60 -24 -20 -56 -47 -70 -61 -14 -14 -52 -47 -84 -75 -32 -27
-71 -61 -85 -75 -15 -14 -63 -56 -107 -95 -43 -38 -90 -80 -103 -93 -14 -12
-46 -40 -72 -62 -26 -22 -58 -50 -72 -62 -13 -13 -58 -52 -98 -88 -41 -36 -91
-81 -113 -100 -49 -44 -69 -62 -147 -130 -35 -30 -71 -62 -80 -70 -8 -8 -52
-46 -95 -85 -44 -38 -82 -72 -85 -75 -3 -3 -59 -52 -125 -110 -66 -58 -140
-124 -165 -146 -25 -23 -63 -57 -85 -75 -23 -19 -59 -51 -80 -71 -22 -20 -51
-46 -65 -58 -63 -54 -191 -167 -244 -215 -18 -16 -57 -50 -85 -75 -29 -25 -65
-56 -79 -70 -15 -14 -68 -61 -117 -104 -92 -80 -207 -182 -254 -225 -14 -13
-50 -44 -80 -70 -29 -25 -63 -55 -76 -66 -61 -56 -175 -156 -210 -186 -22 -19
-47 -41 -55 -49 -8 -8 -46 -42 -84 -75 -39 -33 -79 -69 -91 -80 -12 -11 -49
-45 -84 -75 -35 -30 -75 -65 -90 -78 -14 -13 -42 -37 -62 -55 -19 -18 -69 -61
-109 -97 -41 -36 -87 -77 -103 -92 -16 -15 -37 -34 -47 -41 -11 -7 -43 -36
-72 -63 -30 -27 -78 -69 -107 -94 -29 -25 -65 -56 -80 -70 -65 -59 -118 -107
-161 -144 -50 -43 -160 -140 -194 -171 -12 -11 -53 -47 -91 -80 -37 -33 -83
-73 -101 -90 -17 -16 -53 -48 -79 -70 -26 -22 -62 -55 -81 -72 -19 -18 -36
-33 -39 -33 -2 0 -16 -11 -30 -25 l-25 -26 2 -1159 3 -1159 71 67 c40 37 103
95 140 128 38 34 81 72 95 85 14 13 50 46 80 73 83 75 239 218 271 248 16 16
30 28 32 28 3 0 20 15 38 33 34 31 70 65 233 212 123 112 128 116 216 197 46
42 94 85 105 95 12 10 63 56 115 103 51 47 104 95 117 107 13 13 63 58 110
100 47 43 94 86 106 96 25 21 183 166 202 185 7 6 18 12 25 12 7 0 10 3 7 6
-4 3 12 22 35 42 51 46 111 99 147 132 40 37 200 181 229 208 14 13 42 38 61
56 19 18 62 57 95 86 33 29 104 94 159 144 54 50 112 102 129 116 16 14 44 39
62 55 17 17 76 71 130 120 55 50 120 109 145 132 25 23 56 51 68 62 28 24 173
155 211 191 25 24 169 154 255 230 22 19 54 49 71 65 18 17 67 62 110 100 43
39 93 84 111 100 35 33 187 172 214 195 9 8 57 51 105 95 48 44 97 89 110 100
12 11 57 52 100 90 42 39 98 90 124 113 25 24 71 65 101 92 56 49 65 57 183
167 l67 63 -3 67 c-2 38 0 78 5 91 4 12 4 22 0 22 -9 0 -7 134 2 149 4 6 4 11
-1 11 -10 0 -8 133 1 149 4 6 4 11 -1 11 -10 0 -8 133 1 149 4 6 4 11 -1 11
-10 0 -8 133 1 149 4 6 4 11 -1 11 -10 0 -8 133 1 149 4 6 4 11 -1 11 -10 0
-8 133 1 149 4 6 4 11 -1 11 -10 0 -8 133 1 149 4 6 4 11 -1 11 -10 0 -8 133
1 149 4 6 4 11 -1 11 -10 0 -8 133 1 149 4 6 4 11 -1 11 -10 0 -8 133 1 149 4
6 4 11 -1 11 -10 0 -8 133 1 149 4 6 4 11 -1 11 -10 0 -8 133 1 149 4 6 3 11
-2 11 -5 0 -7 23 -4 50 4 53 3 56 -14 37z"/>
<path d="M8264 7472 c-22 -20 -94 -84 -160 -142 -65 -57 -129 -115 -141 -127
-12 -13 -24 -23 -27 -23 -3 0 -16 -10 -28 -22 -23 -23 -132 -120 -238 -213
-30 -27 -60 -54 -66 -59 -7 -6 -33 -29 -59 -51 -26 -22 -64 -56 -85 -75 -51
-47 -149 -134 -180 -160 -14 -12 -54 -47 -89 -78 -35 -31 -73 -65 -84 -75 -12
-10 -50 -43 -85 -75 -36 -31 -85 -75 -110 -97 -25 -22 -53 -47 -62 -55 -8 -8
-45 -40 -80 -70 -35 -30 -73 -64 -85 -75 -24 -23 -68 -62 -180 -160 -44 -38
-82 -72 -85 -75 -3 -3 -41 -36 -85 -75 -43 -38 -87 -77 -96 -85 -9 -8 -47 -42
-84 -75 -38 -33 -73 -65 -79 -70 -6 -6 -47 -42 -91 -80 -68 -60 -114 -101
-169 -150 -6 -5 -45 -39 -86 -75 -41 -36 -87 -76 -101 -90 -15 -14 -39 -36
-55 -49 -16 -13 -47 -40 -69 -60 -22 -20 -76 -67 -120 -106 -44 -38 -92 -82
-107 -97 -16 -15 -40 -36 -54 -47 -22 -17 -136 -117 -178 -156 -6 -6 -47 -42
-91 -80 -44 -39 -92 -81 -107 -95 -15 -14 -45 -41 -68 -60 -22 -19 -53 -46
-68 -60 -15 -14 -59 -52 -96 -85 -37 -33 -80 -71 -96 -85 -15 -14 -59 -52 -96
-85 -37 -33 -76 -68 -86 -78 -10 -9 -20 -17 -23 -17 -2 0 -19 -16 -38 -35 -19
-19 -39 -35 -46 -35 -6 0 -11 -7 -11 -15 0 -8 -4 -15 -10 -15 -6 0 -18 -8 -28
-18 -10 -9 -51 -46 -92 -82 -41 -36 -81 -72 -90 -80 -9 -8 -70 -62 -135 -120
-66 -58 -138 -122 -160 -142 -22 -20 -51 -45 -65 -56 -14 -11 -43 -36 -65 -57
-22 -20 -62 -55 -88 -78 -27 -23 -72 -63 -100 -89 l-52 -48 -1 -1154 0 -1154
24 18 c13 11 62 54 109 97 47 43 95 87 108 98 12 11 61 55 108 98 47 43 95 86
105 95 11 10 59 53 107 97 48 44 93 85 99 90 7 6 36 33 66 60 31 28 100 91
154 140 55 50 112 102 128 117 16 16 31 28 34 28 2 0 19 15 37 32 18 18 75 71
127 118 126 113 175 157 224 203 22 21 67 61 100 90 32 29 73 66 91 82 17 17
71 66 121 110 96 86 158 142 210 190 18 17 65 60 106 97 40 36 85 76 99 89 14
13 63 58 109 99 154 140 293 266 330 300 15 14 65 59 111 100 104 94 109 99
209 190 46 41 91 82 101 90 23 21 174 158 209 190 15 14 62 57 104 94 42 38
87 78 99 90 13 12 63 57 112 101 48 44 98 89 109 100 23 21 64 58 210 190 49
44 106 96 127 116 21 19 68 62 105 95 37 32 80 70 94 84 14 14 64 59 110 100
46 41 101 91 121 110 21 19 66 60 101 91 34 31 75 67 89 80 14 13 65 60 114
104 49 44 100 91 114 103 14 13 54 49 89 80 l62 55 0 1099 c0 604 -3 1098 -7
1098 -5 0 -26 -17 -49 -38z"/>
<path d="M1684 7463 c-10 -10 -35 -30 -56 -45 -20 -15 -42 -33 -50 -40 -7 -8
-33 -29 -58 -48 -25 -19 -47 -37 -50 -40 -3 -3 -34 -28 -70 -55 -36 -28 -69
-55 -75 -61 -11 -12 -442 -358 -484 -389 -41 -30 -125 -97 -136 -110 -5 -6
-30 -26 -55 -45 -58 -45 -68 -53 -83 -65 -7 -6 -79 -64 -162 -130 -82 -66
-152 -122 -155 -125 -3 -3 -58 -47 -122 -99 l-118 -93 0 -1159 c0 -637 2
-1159 5 -1159 3 0 17 13 32 28 16 15 44 41 63 56 19 16 64 55 100 86 66 58
193 169 310 270 35 30 76 66 91 80 15 14 46 41 69 60 23 19 52 44 64 55 31 28
104 92 168 147 30 26 66 58 80 70 14 13 34 30 44 38 11 9 80 69 154 134 74 65
162 141 194 170 33 28 64 56 70 61 13 12 148 130 190 165 73 62 76 68 76 115
0 14 0 37 1 53 1 30 1 67 -1 97 0 11 -1 56 -1 99 0 44 -2 83 -5 88 -3 4 0 8 7
8 9 0 9 3 0 14 -8 9 -8 16 -2 20 5 4 6 18 2 34 -4 15 -5 38 -1 52 3 13 3 46 0
73 -4 26 -3 50 1 53 5 3 4 15 -1 28 -4 12 -5 28 -1 34 4 7 5 34 1 60 -3 27 -3
60 1 74 4 14 3 31 -1 38 -4 7 -4 25 0 40 4 15 4 33 0 40 -4 6 -4 27 0 46 4 19
4 36 0 39 -5 3 -5 17 -1 32 4 14 4 48 1 75 -4 28 -2 48 3 48 5 0 4 6 -2 14 -8
9 -8 16 -2 20 6 4 6 18 1 35 -4 16 -6 32 -3 35 5 5 5 45 0 169 -1 26 2 47 7
47 5 0 3 6 -3 14 -8 9 -8 16 -2 20 5 4 6 18 2 34 -4 15 -5 38 -1 52 3 13 3 46
0 73 -4 26 -3 50 1 53 5 3 4 15 -1 28 -4 12 -5 27 -2 33 4 6 5 48 2 92 -3 45
-1 81 4 81 5 0 3 6 -3 14 -7 8 -8 17 -3 20 5 3 6 26 2 51 -4 25 -4 48 0 50 8
5 0 65 -9 65 -4 0 -16 -8 -27 -17z"/>
</g>
</svg>
